<svg xmlns="http://www.w3.org/2000/svg" viewBox="1048 250 196 218" fill="#2EE6A6"><path d="m1058.79,459.66c9.21,9.5,25.77,10.02,36.59-.12,27.12-32.52,54.24-65.04,81.36-97.56.56-.8,1.93-3,1.93-6.12,0-3.75-2-6.27-2.57-6.95-26.76-32.29-53.52-64.58-80.28-96.86-9.7-9.84-25.36-10.34-35.24-1.63-9.17,8.08-11.19,22.19-4.35,32.99,18.77,21.82,37.54,43.63,56.32,65.45.49.54,2.76,3.21,2.59,7.18-.15,3.35-1.95,5.56-2.51,6.21-18.82,21.87-37.65,43.75-56.47,65.62-6.5,10.47-5.17,23.73,2.63,31.78Z"></path><path d="m1186.9,338.55c16.15-14.39,32.3-28.78,48.45-43.16,8.17-8.67,8.57-22.11,1.16-31.01-7.75-9.31-21.87-11.05-31.91-3.64-15.91,13.99-31.81,27.99-47.72,41.98,10,11.94,20.01,23.89,30.01,35.83Z"></path><path d="m1157.31,408.15c15.68,13.95,31.36,27.89,47.04,41.84,9.56,7.12,22.95,5.95,30.93-2.44,8.35-8.78,8.44-23.01-.08-32.11-16.01-14.49-32.02-28.98-48.04-43.48-9.95,12.07-19.9,24.13-29.85,36.2Z"></path></svg>