<?xml version="1.0"?><svg fill="#FFFFFF" id="Logo_tecnico" data-name="Logo tecnico" xmlns="http://www.w3.org/2000/svg" viewBox="158.2 244.256 1083.59 222.71"><defs></defs><g><path class="cls-1" d="m158.2,355.62c0-56.64,41.61-98.25,100.56-98.25,50.57,0,88.71,30.63,98.25,75.42h-49.41c-7.51-19.36-25.14-32.08-48.83-32.08-32.07,0-53.17,23.12-53.17,54.9s21.09,54.9,53.17,54.9c23.7,0,41.32-12.71,48.83-32.07h49.41c-9.54,44.79-47.68,75.42-98.25,75.42-58.95,0-100.56-41.61-100.56-98.25Z"></path><path class="cls-1" d="m378.78,261.12h76.58c49.99,0,72.24,27.16,72.24,64.73,0,26.59-11.27,48.26-35.54,58.37l42.48,65.88h-55.48l-33.52-59.24h-19.94v59.24h-46.81v-188.98Zm77.15,86.4c18.78,0,24.27-9.25,24.27-21.67s-5.49-21.38-24.27-21.38h-30.34v43.06h30.34Z"></path><path class="cls-1" d="m550.83,261.12h139.57v43.35h-92.76v30.92h76v37.57h-76v33.81h92.76v43.34h-139.57v-188.98Z"></path><path class="cls-1" d="m710.74,336.83c0-48.83,28.9-79.46,80.91-79.46s80.91,30.63,80.91,79.46v113.27h-46.81v-113.27c0-23.12-10.98-36.12-34.1-36.12s-34.1,13-34.1,36.12v113.27h-46.81v-113.27Z"></path><path class="cls-1" d="m894.71,261.12h139.57v43.35h-92.76v30.92h76v37.57h-76v33.81h92.76v43.34h-139.57v-188.98Z"></path></g><g><path class="cls-1" d="m1058.79,459.66c9.21,9.5,25.77,10.02,36.59-.12,27.12-32.52,54.24-65.04,81.36-97.56.56-.8,1.93-3,1.93-6.12,0-3.75-2-6.27-2.57-6.95-26.76-32.29-53.52-64.58-80.28-96.86-9.7-9.84-25.36-10.34-35.24-1.63-9.17,8.08-11.19,22.19-4.35,32.99,18.77,21.82,37.54,43.63,56.32,65.45.49.54,2.76,3.21,2.59,7.18-.15,3.35-1.95,5.56-2.51,6.21-18.82,21.87-37.65,43.75-56.47,65.62-6.5,10.47-5.17,23.73,2.63,31.78Z"></path><path class="cls-1" d="m1186.9,338.55c16.15-14.39,32.3-28.78,48.45-43.16,8.17-8.67,8.57-22.11,1.16-31.01-7.75-9.31-21.87-11.05-31.91-3.64-15.91,13.99-31.81,27.99-47.72,41.98,10,11.94,20.01,23.89,30.01,35.83Z"></path><path class="cls-1" d="m1157.31,408.15c15.68,13.95,31.36,27.89,47.04,41.84,9.56,7.12,22.95,5.95,30.93-2.44,8.35-8.78,8.44-23.01-.08-32.11-16.01-14.49-32.02-28.98-48.04-43.48-9.95,12.07-19.9,24.13-29.85,36.2Z"></path></g></svg>