<svg width="740" height="140" xmlns="http://www.w3.org/2000/svg" xmlns:xlink="http://www.w3.org/1999/xlink" xml:space="preserve" overflow="hidden"><defs><clipPath id="clip0"><rect x="432" y="280" width="740" height="140"/></clipPath><clipPath id="clip1"><rect x="432" y="280" width="740" height="140"/></clipPath><clipPath id="clip2"><rect x="432" y="280" width="740" height="139"/></clipPath><clipPath id="clip3"><rect x="432" y="280" width="740" height="139"/></clipPath><clipPath id="clip4"><rect x="432" y="280" width="740" height="139"/></clipPath><clipPath id="clip5"><rect x="432" y="280" width="740" height="139"/></clipPath></defs><g clip-path="url(#clip0)" transform="translate(-432 -280)"><g clip-path="url(#clip1)"><g clip-path="url(#clip2)"><g clip-path="url(#clip3)"><g clip-path="url(#clip4)"><g clip-path="url(#clip5)"><path d="M22.3545 127.618 22.3545 9.64824C22.3545 6.81918 25.3144 4.04735 25.3144 4.04735L0 4.04735C0 4.04735 2.95988 6.89276 2.95988 9.64824L2.95988 127.627C2.95988 130.431 0 133.236 0 133.236L25.3144 133.236C25.3144 133.236 22.3545 130.398 22.3545 127.618M191.575 123.072 191.575 9.64824C191.575 6.81918 194.526 4.04735 194.526 4.04735L169.212 4.04735C169.212 4.04735 172.164 6.89276 172.164 9.64824L172.164 101.519 83.4899 7.28524 80.5709 4.04735 60.5304 4.04735C60.5304 4.04735 63.4821 6.89276 63.4821 9.64824L63.4821 15.1755 63.4821 127.627C63.4821 130.439 60.5304 133.244 60.5304 133.244L85.8448 133.244C85.8448 133.244 82.8931 130.407 82.8931 127.627L82.8931 36.7124 171.264 130.595 173.644 133.227 194.543 133.227C194.543 133.227 191.591 130.39 191.591 127.61L191.591 123.072ZM367.753 69.5082C367.753 66.6791 370.116 63.8419 370.116 63.8419L369.56 63.8419 298.245 63.8419 298.245 78.3469 298.245 84.2422C298.245 84.2422 298.752 83.6944 299.553 83.0566 300.608 82.2062 302.178 81.2414 303.764 81.2332L348.865 81.2332 348.865 89.238 348.865 108.273C334.483 117.529 316.454 120.096 302.979 120.096 266.136 120.096 242.326 100.325 242.326 69.7208 242.326 39.3043 266.062 18.8713 301.393 18.8713 321.123 18.8713 337.852 23.7608 352.512 33.777L363.452 17.931C346.478 6.02606 326.552 0 304.214 0 281.5 0 260.903 6.54118 246.226 18.4216 230.65 31.0297 222.416 48.7645 222.416 69.6962 222.416 90.4563 230.65 108.06 246.226 120.619 260.919 132.475 281.516 139 304.214 139 322.3 139 344.278 133.767 360.002 126.163 362.806 124.822 365.406 123.383 367.753 121.903L367.753 69.5082ZM426.419 4.04735 401.105 4.04735C401.105 4.04735 404.057 6.89276 404.057 9.64824L404.057 127.627C404.057 130.439 401.105 133.244 401.105 133.244L426.419 133.244C426.419 133.244 423.468 130.407 423.468 127.627L423.468 9.64824C423.468 6.81918 426.419 4.04735 426.419 4.04735M517.423 123.816C513.041 119.72 452.519 65.7388 452.519 65.7388 452.519 65.7388 507.08 13.4258 509.958 10.7602 512.697 8.22553 520.629 3.94924 520.629 3.94924L485.151 3.94924C485.151 3.94924 488.413 6.73741 485.666 9.56647 483.336 11.9458 425.847 65.6571 425.847 65.6571 488.332 122.41 491.161 124.209 494.178 127.528 496.696 130.276 493.082 133.137 493.082 133.137L531.233 133.137C531.242 133.137 520.71 126.882 517.423 123.816M644.159 85.0598 585.149 85.0598C595.149 64.4306 606.686 40.6452 614.65 24.2187 622.63 40.6534 634.167 64.4306 644.159 85.0598M627.986 4.04735 624.437 4.04735 604.871 4.04735 601.322 4.04735C601.322 4.04735 602.917 6.86824 601.437 9.66459 599.94 12.4609 543.22 124.38 541.789 127.169 540.358 129.957 535.755 133.236 535.755 133.236L567.84 133.236C567.84 133.236 563.236 130.464 564.544 127.618 564.921 126.833 569.745 116.85 576.515 102.885L652.801 102.885C659.571 116.85 664.404 126.842 664.763 127.618 666.08 130.464 661.477 133.236 661.477 133.236L693.561 133.236C693.561 133.236 688.958 129.957 687.527 127.169 686.096 124.38 629.367 12.4528 627.879 9.66459 626.383 6.86824 627.986 4.04735 627.986 4.04735M668.721 7.32612 675.025 7.32612 675.025 4.09641 658.917 4.09641 658.917 7.33429 665.221 7.33429 665.221 23.5646 668.721 23.5646 668.721 7.32612ZM703.177 23.5646 703.177 4.09641 696.922 4.09641 691.656 14.6604 686.39 4.09641 679.841 4.09641 679.841 23.5646 683.226 23.5646 683.226 6.30406 683.913 6.30406 690.495 18.9776 692.678 18.9776 699.203 6.50847 699.751 6.50847 699.751 23.5728 703.177 23.5728Z" fill="#FFFFFF" fill-rule="nonzero" fill-opacity="1" transform="matrix(1.05237 0 0 1 432 280)"/></g></g></g></g></g></g></svg>