<svg xmlns="http://www.w3.org/2000/svg" fill="none" viewBox="0 0 140 91" width="140" height="91"><g clip-path="url(#a)"><path fill="#03D46D" d="M49.198 0v21.586h7.137V7.124h76.567v76.901H56.335V69.493h-7.137V91h90.794V0H49.198Z"></path><path fill="#FFF" d="M49.198 27.488h11.568c5.17 0 8.364 2.845 8.364 9.245 0 4.98-2.03 7.62-4.768 8.432v.205c3.092.867 4.973 3.657 4.973 8.133 0 6.959-3.4 10.214-8.27 10.214H49.198V27.488Zm9.695 15.037c2.03 0 3.147-1.521 3.147-4.878 0-3.05-1.07-4.421-2.793-4.421h-2.943v9.291h2.589v.008Zm.354 15.344c1.928 0 2.888-1.781 2.888-4.831 0-3.302-1.165-4.673-3.14-4.673h-2.691v9.504h2.943Zm-13.464 5.84-4.667-15.951c2.534-1.371 4.21-4.319 4.21-9.552 0-7.368-3.706-10.718-9.789-10.718H25.134v36.22h7.153V33.432h2.59c2.234 0 3.296 1.828 3.296 5.232 0 3.917-1.22 5.336-3.25 5.336h-1.629l5.076 19.71h7.413ZM0 54.669V27.49h7.2v26.928c0 2.388 1.37 3.61 3.25 3.61 2.03 0 3.148-1.427 3.093-3.61V27.488h6.846v26.977c0 6.343-4.517 9.803-10.403 9.803-6.185 0-9.994-3.05-9.994-9.599m73.45-27.18h7.154v36.22h-7.153v-36.22Zm10.71 26.314 6.697-.205c.205 2.23.709 4.823 3.242 4.823 2.03 0 2.637-1.726 2.637-3.358 0-1.978-1.267-3.451-3.345-5.437l-3.447-3.405c-3.25-3.05-5.225-6.044-5.225-10.009 0-5.028 3.148-9.346 9.585-9.346 4.517 0 8.727 2.34 9.026 10.26l-6.288.206c-.26-2.64-.865-4.729-3.092-4.729-1.778 0-2.589 1.371-2.589 3.05 0 1.93 1.975 3.76 3.706 5.383l3.195 3.152c3.502 3.35 5.477 6.454 5.477 10.513 0 5.335-3.651 9.551-9.687 9.551-6.035 0-9.537-4.01-9.891-10.465"></path></g><defs><clipPath id="a"><path fill="#FFF" d="M0 0h140v91H0z"></path></clipPath></defs></svg>
